<svg width="39" height="39" viewBox="0 0 39 39" fill="none" xmlns="http://www.w3.org/2000/svg">
<path fill-rule="evenodd" clip-rule="evenodd" d="M12.1875 7.3125C11.5471 7.31234 10.913 7.43831 10.3214 7.68321C9.72968 7.92812 9.19204 8.28716 8.73913 8.73985C8.28622 9.19254 7.92691 9.73 7.6817 10.3215C7.4365 10.9131 7.31022 11.5471 7.31006 12.1875C7.3099 12.8279 7.43587 13.462 7.68077 14.0536C7.92568 14.6453 8.28472 15.183 8.73741 15.6359C9.19009 16.0888 9.72755 16.4481 10.3191 16.6933C10.9107 16.9385 11.5447 17.0648 12.1851 17.0649C13.4783 17.0653 14.7187 16.5518 15.6334 15.6376C16.5481 14.7233 17.0622 13.4832 17.0625 12.1899C17.0628 10.8967 16.5494 9.65627 15.6351 8.74157C14.7209 7.82688 13.4807 7.31282 12.1875 7.3125ZM9.75 12.1875C9.75 11.541 10.0068 10.921 10.4639 10.4639C10.921 10.0068 11.541 9.75 12.1875 9.75C12.834 9.75 13.4539 10.0068 13.9111 10.4639C14.3682 10.921 14.625 11.541 14.625 12.1875C14.625 12.834 14.3682 13.454 13.9111 13.9111C13.4539 14.3682 12.834 14.625 12.1875 14.625C11.541 14.625 10.921 14.3682 10.4639 13.9111C10.0068 13.454 9.75 12.834 9.75 12.1875Z" fill="black"/>
<path fill-rule="evenodd" clip-rule="evenodd" d="M8.53125 2.4375C6.91509 2.4375 5.36512 3.07952 4.22232 4.22232C3.07952 5.36512 2.4375 6.91509 2.4375 8.53125V30.4688C2.4375 32.0849 3.07952 33.6349 4.22232 34.7777C5.36512 35.9205 6.91509 36.5625 8.53125 36.5625H30.4688C32.0849 36.5625 33.6349 35.9205 34.7777 34.7777C35.9205 33.6349 36.5625 32.0849 36.5625 30.4688V8.53125C36.5625 6.91509 35.9205 5.36512 34.7777 4.22232C33.6349 3.07952 32.0849 2.4375 30.4688 2.4375H8.53125ZM34.125 8.53125V25.0819L26.4469 17.4037C26.2183 17.1753 25.9084 17.0469 25.5852 17.0469C25.2621 17.0469 24.9521 17.1753 24.7236 17.4037L8.05106 34.0762C7.16893 33.961 6.35874 33.5291 5.77132 32.861C5.18391 32.1928 4.85931 31.334 4.85794 30.4444V8.50688C4.85794 7.53718 5.24315 6.6072 5.92883 5.92152C6.61451 5.23584 7.54449 4.85063 8.51419 4.85063H30.4517C31.4214 4.85063 32.3514 5.23584 33.037 5.92152C33.7227 6.6072 34.1079 7.53718 34.1079 8.50688L34.125 8.53125ZM30.4688 34.125H11.4806L25.5938 20.0119L34.125 28.5431V30.4761C34.125 31.4458 33.7398 32.3757 33.0541 33.0614C32.3684 33.7471 31.4384 34.1323 30.4688 34.1323V34.125Z" fill="black"/>
</svg>
