<svg width="46" height="37" viewBox="0 0 46 37" fill="none" xmlns="http://www.w3.org/2000/svg">
<path fill-rule="evenodd" clip-rule="evenodd" d="M14.0176 19.405C14.0176 17.2095 14.9642 15.104 16.6491 13.5515C18.334 11.9991 20.6193 11.127 23.0021 11.127C25.385 11.127 27.6702 11.9991 29.3552 13.5515C31.0401 15.104 31.9867 17.2095 31.9867 19.405C31.9867 21.6005 31.0401 23.7061 29.3552 25.2585C27.6702 26.8109 25.385 27.6831 23.0021 27.6831C20.6193 27.6831 18.334 26.8109 16.6491 25.2585C14.9642 23.7061 14.0176 21.6005 14.0176 19.405ZM23.0021 14.4382C21.5724 14.4382 20.2013 14.9615 19.1903 15.8929C18.1794 16.8244 17.6114 18.0877 17.6114 19.405C17.6114 20.7223 18.1794 21.9856 19.1903 22.9171C20.2013 23.8486 21.5724 24.3719 23.0021 24.3719C24.4318 24.3719 25.803 23.8486 26.814 22.9171C27.8249 21.9856 28.3929 20.7223 28.3929 19.405C28.3929 18.0877 27.8249 16.8244 26.814 15.8929C25.803 14.9615 24.4318 14.4382 23.0021 14.4382Z" fill="#5A3D21"/>
<path fill-rule="evenodd" clip-rule="evenodd" d="M19.6863 3.40107C19.0908 3.40049 18.5011 3.50812 17.9509 3.71781C17.4006 3.9275 16.9006 4.23512 16.4796 4.62306C16.0585 5.01101 15.7246 5.47166 15.4971 5.97864C15.2695 6.48563 15.1527 7.029 15.1533 7.57763C15.1529 8.28664 14.8632 8.96959 14.3417 9.49096C13.8202 10.0123 13.1051 10.334 12.3381 10.3922L6.99532 10.7895C6.48438 10.8274 6.00116 11.0191 5.62015 11.3351C5.23914 11.651 4.9815 12.0737 4.88694 12.5378C3.81172 17.7693 3.73227 23.1332 4.65215 28.3898L4.88455 29.7231C5.10497 30.9814 6.22864 31.9416 7.60866 32.0454L12.2639 32.3942C19.411 32.9287 26.5934 32.9287 33.7405 32.3942L38.3933 32.0454C39.0644 31.9954 39.6978 31.7394 40.1921 31.3183C40.6865 30.8973 41.0132 30.3356 41.1199 29.7231L41.3523 28.3898C42.2713 23.1331 42.1911 17.7692 41.1151 12.5378C41.02 12.0741 40.7622 11.6519 40.3812 11.3364C40.0003 11.0209 39.5173 10.8295 39.0067 10.7917L33.6663 10.3922C32.8994 10.334 32.1842 10.0123 31.6627 9.49096C31.1412 8.96959 30.8515 8.28664 30.8511 7.57763C30.8517 7.029 30.7349 6.48563 30.5073 5.97864C30.2798 5.47166 29.9459 5.01101 29.5248 4.62306C29.1038 4.23512 28.6038 3.9275 28.0536 3.71781C27.5033 3.50812 26.9136 3.40049 26.3181 3.40107H19.6863ZM11.5738 7.12731C11.699 5.22296 12.6081 3.43438 14.1157 2.12657C15.6232 0.818757 17.6157 0.0902944 19.6863 0.0898438H26.3181C30.6427 0.0898438 34.1766 3.2024 34.4306 7.12731L39.299 7.49154C40.5942 7.58787 41.8191 8.07365 42.7854 8.87416C43.7516 9.67466 44.4055 10.7455 44.6466 11.922C45.799 17.529 45.8853 23.2795 44.9006 28.9152L44.6682 30.2507C44.4334 31.5942 43.7163 32.8263 42.6318 33.75C41.5472 34.6736 40.1577 35.2355 38.6856 35.3456L34.0328 35.6944C26.6911 36.2425 19.3133 36.2425 11.9716 35.6944L7.31876 35.3456C5.84669 35.2355 4.45723 34.6736 3.37265 33.75C2.28807 32.8263 1.57103 31.5942 1.33625 30.2507L1.10385 28.9152C0.118613 23.28 0.204549 17.53 1.35781 11.922C1.59925 10.7457 2.25332 9.67502 3.21947 8.87458C4.18562 8.07414 5.41036 7.58823 6.70542 7.49154L11.5738 7.12731Z" fill="#5A3D21"/>
</svg>
