<svg width="65" height="55" viewBox="0 0 65 55" fill="none" xmlns="http://www.w3.org/2000/svg">
<path fill-rule="evenodd" clip-rule="evenodd" d="M19.5674 29.497C19.5674 26.1443 20.9299 22.9288 23.3553 20.5581C25.7807 18.1873 29.0702 16.8555 32.5002 16.8555C35.9302 16.8555 39.2197 18.1873 41.645 20.5581C44.0704 22.9288 45.433 26.1443 45.433 29.497C45.433 32.8498 44.0704 36.0652 41.645 38.436C39.2197 40.8067 35.9302 42.1386 32.5002 42.1386C29.0702 42.1386 25.7807 40.8067 23.3553 38.436C20.9299 36.0652 19.5674 32.8498 19.5674 29.497ZM32.5002 21.9121C30.4422 21.9121 28.4685 22.7112 27.0133 24.1337C25.558 25.5561 24.7405 27.4854 24.7405 29.497C24.7405 31.5087 25.558 33.4379 27.0133 34.8604C28.4685 36.2828 30.4422 37.082 32.5002 37.082C34.5582 37.082 36.5319 36.2828 37.9871 34.8604C39.4423 33.4379 40.2598 31.5087 40.2598 29.497C40.2598 27.4854 39.4423 25.5561 37.9871 24.1337C36.5319 22.7112 34.5582 21.9121 32.5002 21.9121Z" fill="black"/>
<path fill-rule="evenodd" clip-rule="evenodd" d="M27.7273 5.05662C26.8702 5.05573 26.0213 5.2201 25.2292 5.54032C24.4372 5.86053 23.7175 6.3303 23.1114 6.92274C22.5053 7.51518 22.0247 8.21865 21.6971 8.99287C21.3695 9.7671 21.2014 10.5969 21.2023 11.4347C21.2017 12.5174 20.7847 13.5604 20.034 14.3566C19.2834 15.1528 18.2539 15.644 17.15 15.7328L9.45931 16.3396C8.72384 16.3975 8.02827 16.6903 7.47983 17.1728C6.93138 17.6552 6.56052 18.3007 6.42442 19.0095C4.87669 26.9986 4.76233 35.1899 6.08644 43.2173L6.42097 45.2534C6.73825 47.1749 8.35571 48.6413 10.3422 48.7998L17.0431 49.3324C27.331 50.1487 37.6697 50.1487 47.9576 49.3324L54.6551 48.7998C55.621 48.7234 56.5327 48.3325 57.2443 47.6895C57.9559 47.0465 58.4262 46.1887 58.5798 45.2534L58.9143 43.2173C60.2373 35.1897 60.1217 26.9984 58.5729 19.0095C58.4361 18.3013 58.0649 17.6566 57.5165 17.1748C56.9682 16.693 56.273 16.4007 55.538 16.343L47.8507 15.7328C46.7468 15.644 45.7173 15.1528 44.9667 14.3566C44.216 13.5604 43.799 12.5174 43.7984 11.4347C43.7994 10.5969 43.6312 9.7671 43.3036 8.99287C42.976 8.21865 42.4954 7.51518 41.8893 6.92274C41.2832 6.3303 40.5636 5.86053 39.7715 5.54032C38.9795 5.2201 38.1306 5.05573 37.2734 5.05662H27.7273ZM16.0499 10.747C16.2299 7.83886 17.5386 5.10749 19.7086 3.11031C21.8787 1.11313 24.7467 0.000688179 27.7273 0H37.2734C43.4984 0 48.5853 4.75322 48.9509 10.747L55.9587 11.3032C57.8231 11.4503 59.5863 12.1922 60.9771 13.4147C62.368 14.6371 63.3093 16.2724 63.6563 18.069C65.3152 26.6315 65.4393 35.4132 64.0219 44.0196L63.6873 46.0591C63.3494 48.1107 62.3172 49.9923 60.7561 51.4028C59.1949 52.8134 57.1948 53.6714 55.0758 53.8395L48.3784 54.3722C37.8104 55.2093 27.1904 55.2093 16.6223 54.3722L9.92489 53.8395C7.80591 53.6714 5.80586 52.8134 4.24467 51.4028C2.68347 49.9923 1.65134 48.1107 1.31338 46.0591L0.97885 44.0196C-0.43934 35.4141 -0.315641 26.6331 1.34442 18.069C1.69196 16.2727 2.63346 14.6377 4.02418 13.4153C5.4149 12.1929 7.17785 11.4509 9.04201 11.3032L16.0499 10.747Z" fill="black"/>
</svg>
